<?xml version="1.0" encoding="utf-8"?>
<!-- Generated by IcoMoon.io -->
<!DOCTYPE svg PUBLIC "-//W3C//DTD SVG 1.1//EN" "http://www.w3.org/Graphics/SVG/1.1/DTD/svg11.dtd">
<svg version="1.1" xmlns="http://www.w3.org/2000/svg" xmlns:xlink="http://www.w3.org/1999/xlink" width="20" height="20" viewBox="0 0 20 20">
<path d="M10.653 3.544l-3.025 0.712c-0.409-0.756-1.047-1.481-2.041-1.913-1.003-0.437-1.991-0.284-2.712 0.416-0.659 0.637-0.941 1.6-0.734 2.513 0.144 0.641 0.659 1.791 2.503 2.275l0.15-0.694c-1.119-0.294-1.841-0.916-2.028-1.753-0.147-0.65 0.059-1.341 0.534-1.803 0.534-0.519 1.281-0.622 2.053-0.287 2.366 1.028 2.375 4.059 2.375 4.188 0 0.197 0.144 0.422 0.322 0.422 0.175 0 0.319-0.106 0.322-0.287h0.041c0 0 0-0.131 0-0.134 0 0 0 0 0 0s0 0 0 0c0-0.069-0.022-0.494-0.128-1.075 0.159 0.034 0.303 0.119 0.428 0.256 0.338 0.375 0.334 0.984-0.006 1.356-0.338 0.375-0.891 0.375-1.228 0-0.269-0.297-0.322-0.744-0.162-1.1-0.106-0.603-0.341-1.406-0.847-2.1l-0.544 0.128-1.009 5.234 7.366 8.159 5.738-6.353-7.366-8.159z" fill="rgb(68, 68, 68)"></path>
</svg>
